<mxfile host="app.diagrams.net" modified="2021-08-30T08:07:37.854Z" agent="5.0 (Macintosh; Intel Mac OS X 10_15_6) AppleWebKit/537.36 (KHTML, like Gecko) Chrome/92.0.4515.159 Safari/537.36" etag="JgVdcV44JiEo1ucP41V_" version="14.9.8" type="github">
  <diagram name="Page-1" id="97916047-d0de-89f5-080d-49f4d83e522f">
    <mxGraphModel dx="2590" dy="6430" grid="1" gridSize="10" guides="1" tooltips="1" connect="1" arrows="1" fold="1" page="1" pageScale="1.5" pageWidth="4681" pageHeight="3300" background="none" math="0" shadow="0">
      <root>
        <mxCell id="0" />
        <mxCell id="1" parent="0" />
        <mxCell id="APXvnpSU0P8AZsmZ6f8P-56" style="edgeStyle=orthogonalEdgeStyle;rounded=0;orthogonalLoop=1;jettySize=auto;html=1;exitX=1;exitY=0.5;exitDx=0;exitDy=0;entryX=0;entryY=0.5;entryDx=0;entryDy=0;fontSize=20;" edge="1" parent="1" source="2" target="7">
          <mxGeometry relative="1" as="geometry" />
        </mxCell>
        <mxCell id="APXvnpSU0P8AZsmZ6f8P-57" style="edgeStyle=orthogonalEdgeStyle;rounded=0;orthogonalLoop=1;jettySize=auto;html=1;exitX=1;exitY=0.5;exitDx=0;exitDy=0;entryX=0;entryY=0.5;entryDx=0;entryDy=0;fontSize=20;" edge="1" parent="1" source="2" target="APXvnpSU0P8AZsmZ6f8P-55">
          <mxGeometry relative="1" as="geometry" />
        </mxCell>
        <mxCell id="2" value="权限" style="rounded=1;fillColor=#ffe6cc;strokeColor=#d79b00;shadow=1;fontStyle=1;fontSize=20;" parent="1" vertex="1">
          <mxGeometry x="310" y="-4440" width="200" height="60" as="geometry" />
        </mxCell>
        <mxCell id="3" value="Deputy Director" style="rounded=1;fillColor=#ffe6cc;strokeColor=#d79b00;shadow=1;fontStyle=1;fontSize=20;" parent="1" vertex="1">
          <mxGeometry x="600" y="1180" width="220" height="60" as="geometry" />
        </mxCell>
        <mxCell id="4" value="Office of &#xa;Workplace Solutions" style="rounded=1;fillColor=#ffe6cc;strokeColor=#d79b00;shadow=1;fontStyle=1;fontSize=20;" parent="1" vertex="1">
          <mxGeometry x="240" y="1290" width="200" height="60" as="geometry" />
        </mxCell>
        <mxCell id="5" value="Office of Public Relations" style="rounded=1;fillColor=#ffe6cc;strokeColor=#d79b00;shadow=1;fontStyle=1;fontSize=20;" parent="1" vertex="1">
          <mxGeometry x="480" y="1290" width="200" height="60" as="geometry" />
        </mxCell>
        <mxCell id="6" value="Counsel Division" style="rounded=1;fillColor=#ffe6cc;strokeColor=#d79b00;shadow=1;fontStyle=1;fontSize=20;" parent="1" vertex="1">
          <mxGeometry x="810" y="1290" width="200" height="60" as="geometry" />
        </mxCell>
        <mxCell id="APXvnpSU0P8AZsmZ6f8P-61" style="edgeStyle=orthogonalEdgeStyle;rounded=0;orthogonalLoop=1;jettySize=auto;html=1;exitX=1;exitY=0.5;exitDx=0;exitDy=0;entryX=0;entryY=0.5;entryDx=0;entryDy=0;fontSize=20;" edge="1" parent="1" source="7" target="APXvnpSU0P8AZsmZ6f8P-58">
          <mxGeometry relative="1" as="geometry" />
        </mxCell>
        <mxCell id="APXvnpSU0P8AZsmZ6f8P-62" style="edgeStyle=orthogonalEdgeStyle;rounded=0;orthogonalLoop=1;jettySize=auto;html=1;exitX=1;exitY=0.5;exitDx=0;exitDy=0;entryX=0;entryY=0.5;entryDx=0;entryDy=0;fontSize=20;" edge="1" parent="1" source="7" target="APXvnpSU0P8AZsmZ6f8P-59">
          <mxGeometry relative="1" as="geometry" />
        </mxCell>
        <mxCell id="7" value="菜单权限" style="rounded=1;fillColor=#ffe6cc;strokeColor=#d79b00;shadow=1;fontStyle=1;fontSize=20;" parent="1" vertex="1">
          <mxGeometry x="690" y="-4670" width="200" height="60" as="geometry" />
        </mxCell>
        <mxCell id="8" value="Analysis &#xa;Division" style="rounded=1;fillColor=#ffe6cc;strokeColor=#d79b00;shadow=1;fontStyle=1;fontSize=20;" parent="1" vertex="1">
          <mxGeometry x="220" y="1460" width="200" height="60" as="geometry" />
        </mxCell>
        <mxCell id="9" value="Office of Global Support" style="rounded=1;fillColor=#ffe6cc;strokeColor=#d79b00;shadow=1;fontStyle=1;fontSize=20;" parent="1" vertex="1">
          <mxGeometry x="220" y="1540" width="200" height="60" as="geometry" />
        </mxCell>
        <mxCell id="10" value="Office of &#xa;Backtrack Analysis" style="rounded=1;fillColor=#ffe6cc;strokeColor=#d79b00;shadow=1;fontStyle=1;fontSize=20;" parent="1" vertex="1">
          <mxGeometry x="220" y="1630" width="200" height="60" as="geometry" />
        </mxCell>
        <mxCell id="11" value="Department of &#xa;Heuristic Support" style="rounded=1;fillColor=#ffe6cc;strokeColor=#d79b00;shadow=1;fontStyle=1;fontSize=20;" parent="1" vertex="1">
          <mxGeometry x="220" y="1720" width="200" height="60" as="geometry" />
        </mxCell>
        <mxCell id="12" value="Office of Intelligence &#xa;Support" style="rounded=1;fillColor=#ffe6cc;strokeColor=#d79b00;shadow=1;fontStyle=1;fontSize=20;" parent="1" vertex="1">
          <mxGeometry x="220" y="1810" width="200" height="60" as="geometry" />
        </mxCell>
        <mxCell id="13" value="IT&#xa;Division" style="rounded=1;fillColor=#ffe6cc;strokeColor=#d79b00;shadow=1;fontStyle=1;fontSize=20;" parent="1" vertex="1">
          <mxGeometry x="490" y="1450" width="200" height="60" as="geometry" />
        </mxCell>
        <mxCell id="14" value="Database Administration" style="rounded=1;fillColor=#ffe6cc;strokeColor=#d79b00;shadow=1;fontStyle=1;fontSize=20;" parent="1" vertex="1">
          <mxGeometry x="490" y="1540" width="200" height="60" as="geometry" />
        </mxCell>
        <mxCell id="15" value="Office of Technology &#xa;Research" style="rounded=1;fillColor=#ffe6cc;strokeColor=#d79b00;shadow=1;fontStyle=1;fontSize=20;" parent="1" vertex="1">
          <mxGeometry x="490" y="1630" width="200" height="60" as="geometry" />
        </mxCell>
        <mxCell id="16" value="Office of&#xa;Data Services" style="rounded=1;fillColor=#ffe6cc;strokeColor=#d79b00;shadow=1;fontStyle=1;fontSize=20;" parent="1" vertex="1">
          <mxGeometry x="490" y="1720" width="200" height="60" as="geometry" />
        </mxCell>
        <mxCell id="18" value="Management Programs &#xa;Division" style="rounded=1;fillColor=#ffe6cc;strokeColor=#d79b00;shadow=1;fontStyle=1;fontSize=20;" parent="1" vertex="1">
          <mxGeometry x="780" y="1450" width="200" height="60" as="geometry" />
        </mxCell>
        <mxCell id="19" value="Office of Financial &#xa;Management" style="rounded=1;fillColor=#ffe6cc;strokeColor=#d79b00;shadow=1;fontStyle=1;fontSize=20;" parent="1" vertex="1">
          <mxGeometry x="780" y="1540" width="200" height="60" as="geometry" />
        </mxCell>
        <mxCell id="20" value="Office of Human Resources" style="rounded=1;fillColor=#ffe6cc;strokeColor=#d79b00;shadow=1;fontStyle=1;fontSize=20;" parent="1" vertex="1">
          <mxGeometry x="780" y="1630" width="200" height="60" as="geometry" />
        </mxCell>
        <mxCell id="21" value="Office of Management " style="rounded=1;fillColor=#ffe6cc;strokeColor=#d79b00;shadow=1;fontStyle=1;fontSize=20;" parent="1" vertex="1">
          <mxGeometry x="780" y="1720" width="200" height="60" as="geometry" />
        </mxCell>
        <mxCell id="22" value="Office of Training Services" style="rounded=1;fillColor=#ffe6cc;strokeColor=#d79b00;shadow=1;fontStyle=1;fontSize=20;" parent="1" vertex="1">
          <mxGeometry x="780" y="1810" width="200" height="60" as="geometry" />
        </mxCell>
        <mxCell id="23" value="Regulatory &#xa;and Enforcement Division" style="rounded=1;fillColor=#ffe6cc;strokeColor=#d79b00;shadow=1;fontStyle=1;fontSize=20;" parent="1" vertex="1">
          <mxGeometry x="1030" y="1450" width="200" height="60" as="geometry" />
        </mxCell>
        <mxCell id="24" value="Office of Regulatory Policy" style="rounded=1;fillColor=#ffe6cc;strokeColor=#d79b00;shadow=1;fontStyle=1;fontSize=20;" parent="1" vertex="1">
          <mxGeometry x="1030" y="1540" width="200" height="60" as="geometry" />
        </mxCell>
        <mxCell id="25" value="Office Compliance" style="rounded=1;fillColor=#ffe6cc;strokeColor=#d79b00;shadow=1;fontStyle=1;fontSize=20;" parent="1" vertex="1">
          <mxGeometry x="1030" y="1630" width="200" height="60" as="geometry" />
        </mxCell>
        <mxCell id="26" value="Office of &#xa;Enforcement" style="rounded=1;fillColor=#ffe6cc;strokeColor=#d79b00;shadow=1;fontStyle=1;fontSize=20;" parent="1" vertex="1">
          <mxGeometry x="1030" y="1720" width="200" height="60" as="geometry" />
        </mxCell>
        <mxCell id="27" value="Office of&#xa; Regulatory Support" style="rounded=1;fillColor=#ffe6cc;strokeColor=#d79b00;shadow=1;fontStyle=1;fontSize=20;" parent="1" vertex="1">
          <mxGeometry x="1030" y="1810" width="200" height="60" as="geometry" />
        </mxCell>
        <mxCell id="30" value="" style="edgeStyle=elbowEdgeStyle;elbow=vertical;strokeWidth=4;endArrow=block;endFill=1;fontStyle=1;strokeColor=#d79b00;fillColor=#ffe6cc;fontSize=20;" parent="1" source="3" target="5" edge="1">
          <mxGeometry x="-40" y="1000" width="100" height="100" as="geometry">
            <mxPoint x="-40" y="1100" as="sourcePoint" />
            <mxPoint x="60" y="1000" as="targetPoint" />
          </mxGeometry>
        </mxCell>
        <mxCell id="31" value="" style="edgeStyle=elbowEdgeStyle;elbow=vertical;strokeWidth=4;endArrow=block;endFill=1;fontStyle=1;strokeColor=#d79b00;fillColor=#ffe6cc;fontSize=20;" parent="1" source="3" target="4" edge="1">
          <mxGeometry x="-40" y="1000" width="100" height="100" as="geometry">
            <mxPoint x="-40" y="1100" as="sourcePoint" />
            <mxPoint x="60" y="1000" as="targetPoint" />
          </mxGeometry>
        </mxCell>
        <mxCell id="32" value="" style="edgeStyle=elbowEdgeStyle;elbow=vertical;strokeWidth=4;endArrow=block;endFill=1;fontStyle=1;strokeColor=#d79b00;fillColor=#ffe6cc;fontSize=20;" parent="1" source="3" target="6" edge="1">
          <mxGeometry x="-40" y="1000" width="100" height="100" as="geometry">
            <mxPoint x="-40" y="1100" as="sourcePoint" />
            <mxPoint x="60" y="1000" as="targetPoint" />
          </mxGeometry>
        </mxCell>
        <mxCell id="34" value="" style="edgeStyle=elbowEdgeStyle;elbow=vertical;strokeWidth=4;endArrow=block;endFill=1;fontStyle=1;strokeColor=#d79b00;fillColor=#ffe6cc;fontSize=20;" parent="1" source="3" target="8" edge="1">
          <mxGeometry x="-40" y="1000" width="100" height="100" as="geometry">
            <mxPoint x="-40" y="1100" as="sourcePoint" />
            <mxPoint x="60" y="1000" as="targetPoint" />
            <Array as="points">
              <mxPoint x="490" y="1390" />
            </Array>
          </mxGeometry>
        </mxCell>
        <mxCell id="37" value="" style="edgeStyle=elbowEdgeStyle;elbow=vertical;strokeWidth=4;endArrow=block;endFill=1;fontStyle=1;strokeColor=#d79b00;fillColor=#ffe6cc;fontSize=20;" parent="1" source="3" target="23" edge="1">
          <mxGeometry x="-40" y="1000" width="100" height="100" as="geometry">
            <mxPoint x="-40" y="1100" as="sourcePoint" />
            <mxPoint x="60" y="1000" as="targetPoint" />
            <Array as="points">
              <mxPoint x="910" y="1390" />
            </Array>
          </mxGeometry>
        </mxCell>
        <mxCell id="38" value="" style="edgeStyle=elbowEdgeStyle;elbow=vertical;strokeWidth=4;endArrow=block;endFill=1;fontStyle=1;strokeColor=#d79b00;fillColor=#ffe6cc;fontSize=20;" parent="1" source="8" target="9" edge="1">
          <mxGeometry y="1000" width="100" height="100" as="geometry">
            <mxPoint y="1100" as="sourcePoint" />
            <mxPoint x="100" y="1000" as="targetPoint" />
          </mxGeometry>
        </mxCell>
        <mxCell id="39" value="" style="edgeStyle=elbowEdgeStyle;elbow=vertical;strokeWidth=4;endArrow=block;endFill=1;fontStyle=1;strokeColor=#d79b00;fillColor=#ffe6cc;fontSize=20;" parent="1" source="9" target="10" edge="1">
          <mxGeometry y="1010" width="100" height="100" as="geometry">
            <mxPoint y="1110" as="sourcePoint" />
            <mxPoint x="100" y="1010" as="targetPoint" />
          </mxGeometry>
        </mxCell>
        <mxCell id="40" value="" style="edgeStyle=elbowEdgeStyle;elbow=vertical;strokeWidth=4;endArrow=block;endFill=1;fontStyle=1;strokeColor=#d79b00;fillColor=#ffe6cc;fontSize=20;" parent="1" source="10" target="11" edge="1">
          <mxGeometry y="1020" width="100" height="100" as="geometry">
            <mxPoint y="1120" as="sourcePoint" />
            <mxPoint x="100" y="1020" as="targetPoint" />
          </mxGeometry>
        </mxCell>
        <mxCell id="41" value="" style="edgeStyle=elbowEdgeStyle;elbow=vertical;strokeWidth=4;endArrow=block;endFill=1;fontStyle=1;strokeColor=#d79b00;fillColor=#ffe6cc;fontSize=20;" parent="1" source="11" target="12" edge="1">
          <mxGeometry y="1030" width="100" height="100" as="geometry">
            <mxPoint y="1130" as="sourcePoint" />
            <mxPoint x="100" y="1030" as="targetPoint" />
          </mxGeometry>
        </mxCell>
        <mxCell id="42" value="" style="edgeStyle=elbowEdgeStyle;elbow=vertical;strokeWidth=4;endArrow=block;endFill=1;fontStyle=1;strokeColor=#d79b00;fillColor=#ffe6cc;fontSize=20;" parent="1" source="13" target="14" edge="1">
          <mxGeometry y="1000" width="100" height="100" as="geometry">
            <mxPoint y="1100" as="sourcePoint" />
            <mxPoint x="100" y="1000" as="targetPoint" />
          </mxGeometry>
        </mxCell>
        <mxCell id="43" value="" style="edgeStyle=elbowEdgeStyle;elbow=vertical;strokeWidth=4;endArrow=block;endFill=1;fontStyle=1;strokeColor=#d79b00;fillColor=#ffe6cc;fontSize=20;" parent="1" source="14" target="15" edge="1">
          <mxGeometry y="1010" width="100" height="100" as="geometry">
            <mxPoint y="1110" as="sourcePoint" />
            <mxPoint x="100" y="1010" as="targetPoint" />
          </mxGeometry>
        </mxCell>
        <mxCell id="44" value="" style="edgeStyle=elbowEdgeStyle;elbow=vertical;strokeWidth=4;endArrow=block;endFill=1;fontStyle=1;strokeColor=#d79b00;fillColor=#ffe6cc;fontSize=20;" parent="1" source="15" target="16" edge="1">
          <mxGeometry y="1020" width="100" height="100" as="geometry">
            <mxPoint y="1120" as="sourcePoint" />
            <mxPoint x="100" y="1020" as="targetPoint" />
          </mxGeometry>
        </mxCell>
        <mxCell id="46" value="" style="edgeStyle=elbowEdgeStyle;elbow=vertical;strokeWidth=4;endArrow=block;endFill=1;fontStyle=1;strokeColor=#d79b00;fillColor=#ffe6cc;fontSize=20;" parent="1" source="18" target="19" edge="1">
          <mxGeometry x="10" y="1000" width="100" height="100" as="geometry">
            <mxPoint x="10" y="1100" as="sourcePoint" />
            <mxPoint x="110" y="1000" as="targetPoint" />
          </mxGeometry>
        </mxCell>
        <mxCell id="47" value="" style="edgeStyle=elbowEdgeStyle;elbow=vertical;strokeWidth=4;endArrow=block;endFill=1;fontStyle=1;strokeColor=#d79b00;fillColor=#ffe6cc;fontSize=20;" parent="1" source="19" target="20" edge="1">
          <mxGeometry x="10" y="1010" width="100" height="100" as="geometry">
            <mxPoint x="10" y="1110" as="sourcePoint" />
            <mxPoint x="110" y="1010" as="targetPoint" />
          </mxGeometry>
        </mxCell>
        <mxCell id="48" value="" style="edgeStyle=elbowEdgeStyle;elbow=vertical;strokeWidth=4;endArrow=block;endFill=1;fontStyle=1;strokeColor=#d79b00;fillColor=#ffe6cc;fontSize=20;" parent="1" source="20" target="21" edge="1">
          <mxGeometry x="10" y="1020" width="100" height="100" as="geometry">
            <mxPoint x="10" y="1120" as="sourcePoint" />
            <mxPoint x="110" y="1020" as="targetPoint" />
          </mxGeometry>
        </mxCell>
        <mxCell id="49" value="" style="edgeStyle=elbowEdgeStyle;elbow=vertical;strokeWidth=4;endArrow=block;endFill=1;fontStyle=1;strokeColor=#d79b00;fillColor=#ffe6cc;fontSize=20;" parent="1" source="21" target="22" edge="1">
          <mxGeometry x="10" y="1030" width="100" height="100" as="geometry">
            <mxPoint x="10" y="1130" as="sourcePoint" />
            <mxPoint x="110" y="1030" as="targetPoint" />
          </mxGeometry>
        </mxCell>
        <mxCell id="50" value="" style="edgeStyle=elbowEdgeStyle;elbow=vertical;strokeWidth=4;endArrow=block;endFill=1;fontStyle=1;strokeColor=#d79b00;fillColor=#ffe6cc;fontSize=20;" parent="1" source="23" target="24" edge="1">
          <mxGeometry x="10" y="1000" width="100" height="100" as="geometry">
            <mxPoint x="10" y="1100" as="sourcePoint" />
            <mxPoint x="110" y="1000" as="targetPoint" />
          </mxGeometry>
        </mxCell>
        <mxCell id="51" value="" style="edgeStyle=elbowEdgeStyle;elbow=vertical;strokeWidth=4;endArrow=block;endFill=1;fontStyle=1;strokeColor=#d79b00;fillColor=#ffe6cc;fontSize=20;" parent="1" source="24" target="25" edge="1">
          <mxGeometry x="10" y="1010" width="100" height="100" as="geometry">
            <mxPoint x="10" y="1110" as="sourcePoint" />
            <mxPoint x="110" y="1010" as="targetPoint" />
          </mxGeometry>
        </mxCell>
        <mxCell id="52" value="" style="edgeStyle=elbowEdgeStyle;elbow=vertical;strokeWidth=4;endArrow=block;endFill=1;fontStyle=1;strokeColor=#d79b00;fillColor=#ffe6cc;fontSize=20;" parent="1" source="25" target="26" edge="1">
          <mxGeometry x="10" y="1020" width="100" height="100" as="geometry">
            <mxPoint x="10" y="1120" as="sourcePoint" />
            <mxPoint x="110" y="1020" as="targetPoint" />
          </mxGeometry>
        </mxCell>
        <mxCell id="53" value="" style="edgeStyle=elbowEdgeStyle;elbow=vertical;strokeWidth=4;endArrow=block;endFill=1;fontStyle=1;strokeColor=#d79b00;fillColor=#ffe6cc;fontSize=20;" parent="1" source="26" target="27" edge="1">
          <mxGeometry x="10" y="1030" width="100" height="100" as="geometry">
            <mxPoint x="10" y="1130" as="sourcePoint" />
            <mxPoint x="110" y="1030" as="targetPoint" />
          </mxGeometry>
        </mxCell>
        <mxCell id="54" value="" style="edgeStyle=elbowEdgeStyle;elbow=vertical;strokeWidth=4;endArrow=block;endFill=1;fontStyle=1;strokeColor=#d79b00;fillColor=#ffe6cc;fontSize=20;" parent="1" source="3" target="13" edge="1">
          <mxGeometry x="-40" y="1000" width="100" height="100" as="geometry">
            <mxPoint x="-40" y="1100" as="sourcePoint" />
            <mxPoint x="60" y="1000" as="targetPoint" />
            <Array as="points">
              <mxPoint x="590" y="1390" />
            </Array>
          </mxGeometry>
        </mxCell>
        <mxCell id="55" value="" style="edgeStyle=elbowEdgeStyle;elbow=vertical;strokeWidth=4;endArrow=block;endFill=1;fontStyle=1;strokeColor=#d79b00;fillColor=#ffe6cc;fontSize=20;" parent="1" source="3" target="18" edge="1">
          <mxGeometry x="-40" y="1000" width="100" height="100" as="geometry">
            <mxPoint x="-40" y="1100" as="sourcePoint" />
            <mxPoint x="60" y="1000" as="targetPoint" />
            <Array as="points">
              <mxPoint x="880" y="1390" />
            </Array>
          </mxGeometry>
        </mxCell>
        <mxCell id="APXvnpSU0P8AZsmZ6f8P-65" style="edgeStyle=orthogonalEdgeStyle;rounded=0;orthogonalLoop=1;jettySize=auto;html=1;exitX=1;exitY=0.5;exitDx=0;exitDy=0;entryX=0;entryY=0.5;entryDx=0;entryDy=0;fontSize=20;" edge="1" parent="1" source="APXvnpSU0P8AZsmZ6f8P-55" target="APXvnpSU0P8AZsmZ6f8P-63">
          <mxGeometry relative="1" as="geometry" />
        </mxCell>
        <mxCell id="APXvnpSU0P8AZsmZ6f8P-66" style="edgeStyle=orthogonalEdgeStyle;rounded=0;orthogonalLoop=1;jettySize=auto;html=1;exitX=1;exitY=0.5;exitDx=0;exitDy=0;entryX=0;entryY=0.5;entryDx=0;entryDy=0;fontSize=20;" edge="1" parent="1" source="APXvnpSU0P8AZsmZ6f8P-55" target="APXvnpSU0P8AZsmZ6f8P-64">
          <mxGeometry relative="1" as="geometry">
            <Array as="points">
              <mxPoint x="920" y="-4170" />
              <mxPoint x="920" y="-4100" />
            </Array>
          </mxGeometry>
        </mxCell>
        <mxCell id="APXvnpSU0P8AZsmZ6f8P-55" value="数据权限" style="rounded=1;fillColor=#ffe6cc;strokeColor=#d79b00;shadow=1;fontStyle=1;fontSize=20;" vertex="1" parent="1">
          <mxGeometry x="690" y="-4200" width="200" height="60" as="geometry" />
        </mxCell>
        <mxCell id="APXvnpSU0P8AZsmZ6f8P-58" value="可看" style="rounded=1;fillColor=#ffe6cc;strokeColor=#d79b00;shadow=1;fontStyle=1;fontSize=20;" vertex="1" parent="1">
          <mxGeometry x="960" y="-4750" width="220" height="60" as="geometry" />
        </mxCell>
        <mxCell id="APXvnpSU0P8AZsmZ6f8P-59" value="不可看" style="rounded=1;fillColor=#ffe6cc;strokeColor=#d79b00;shadow=1;fontStyle=1;fontSize=20;" vertex="1" parent="1">
          <mxGeometry x="960" y="-4620" width="220" height="60" as="geometry" />
        </mxCell>
        <mxCell id="APXvnpSU0P8AZsmZ6f8P-67" style="edgeStyle=orthogonalEdgeStyle;rounded=0;orthogonalLoop=1;jettySize=auto;html=1;exitX=1;exitY=0.5;exitDx=0;exitDy=0;fontSize=20;" edge="1" parent="1" source="APXvnpSU0P8AZsmZ6f8P-63">
          <mxGeometry relative="1" as="geometry">
            <mxPoint x="1290" y="-4260" as="targetPoint" />
          </mxGeometry>
        </mxCell>
        <mxCell id="APXvnpSU0P8AZsmZ6f8P-63" value="可看" style="rounded=1;fillColor=#ffe6cc;strokeColor=#d79b00;shadow=1;fontStyle=1;fontSize=20;" vertex="1" parent="1">
          <mxGeometry x="950" y="-4290" width="220" height="60" as="geometry" />
        </mxCell>
        <mxCell id="APXvnpSU0P8AZsmZ6f8P-64" value="不可看" style="rounded=1;fillColor=#ffe6cc;strokeColor=#d79b00;shadow=1;fontStyle=1;fontSize=20;" vertex="1" parent="1">
          <mxGeometry x="940" y="-4130" width="220" height="60" as="geometry" />
        </mxCell>
        <mxCell id="APXvnpSU0P8AZsmZ6f8P-68" value="部分可看" style="rounded=1;fillColor=#ffe6cc;strokeColor=#d79b00;shadow=1;fontStyle=1;fontSize=20;" vertex="1" parent="1">
          <mxGeometry x="1290" y="-4290" width="220" height="60" as="geometry" />
        </mxCell>
        <mxCell id="APXvnpSU0P8AZsmZ6f8P-69" style="edgeStyle=orthogonalEdgeStyle;rounded=0;orthogonalLoop=1;jettySize=auto;html=1;exitX=1;exitY=0.5;exitDx=0;exitDy=0;entryX=0;entryY=0.5;entryDx=0;entryDy=0;fontSize=20;" edge="1" parent="1" source="APXvnpSU0P8AZsmZ6f8P-71" target="APXvnpSU0P8AZsmZ6f8P-74">
          <mxGeometry relative="1" as="geometry" />
        </mxCell>
        <mxCell id="APXvnpSU0P8AZsmZ6f8P-70" style="edgeStyle=orthogonalEdgeStyle;rounded=0;orthogonalLoop=1;jettySize=auto;html=1;exitX=1;exitY=0.5;exitDx=0;exitDy=0;entryX=0;entryY=0.5;entryDx=0;entryDy=0;fontSize=20;" edge="1" parent="1" source="APXvnpSU0P8AZsmZ6f8P-71" target="APXvnpSU0P8AZsmZ6f8P-77">
          <mxGeometry relative="1" as="geometry" />
        </mxCell>
        <mxCell id="APXvnpSU0P8AZsmZ6f8P-71" value="菜单" style="rounded=1;fillColor=#ffe6cc;strokeColor=#d79b00;shadow=1;fontStyle=1;fontSize=20;" vertex="1" parent="1">
          <mxGeometry x="240" y="-3480" width="200" height="60" as="geometry" />
        </mxCell>
        <mxCell id="APXvnpSU0P8AZsmZ6f8P-72" style="edgeStyle=orthogonalEdgeStyle;rounded=0;orthogonalLoop=1;jettySize=auto;html=1;exitX=1;exitY=0.5;exitDx=0;exitDy=0;entryX=0;entryY=0.5;entryDx=0;entryDy=0;fontSize=20;" edge="1" parent="1" source="APXvnpSU0P8AZsmZ6f8P-74" target="APXvnpSU0P8AZsmZ6f8P-78">
          <mxGeometry relative="1" as="geometry" />
        </mxCell>
        <mxCell id="APXvnpSU0P8AZsmZ6f8P-73" style="edgeStyle=orthogonalEdgeStyle;rounded=0;orthogonalLoop=1;jettySize=auto;html=1;exitX=1;exitY=0.5;exitDx=0;exitDy=0;entryX=0;entryY=0.5;entryDx=0;entryDy=0;fontSize=20;" edge="1" parent="1" source="APXvnpSU0P8AZsmZ6f8P-74" target="APXvnpSU0P8AZsmZ6f8P-79">
          <mxGeometry relative="1" as="geometry" />
        </mxCell>
        <mxCell id="APXvnpSU0P8AZsmZ6f8P-74" value="前台" style="rounded=1;fillColor=#ffe6cc;strokeColor=#d79b00;shadow=1;fontStyle=1;fontSize=20;" vertex="1" parent="1">
          <mxGeometry x="620" y="-3710" width="200" height="60" as="geometry" />
        </mxCell>
        <mxCell id="APXvnpSU0P8AZsmZ6f8P-96" style="edgeStyle=orthogonalEdgeStyle;rounded=0;orthogonalLoop=1;jettySize=auto;html=1;exitX=1;exitY=0.5;exitDx=0;exitDy=0;entryX=0;entryY=0.5;entryDx=0;entryDy=0;fontSize=20;" edge="1" parent="1" source="APXvnpSU0P8AZsmZ6f8P-77" target="APXvnpSU0P8AZsmZ6f8P-95">
          <mxGeometry relative="1" as="geometry" />
        </mxCell>
        <mxCell id="APXvnpSU0P8AZsmZ6f8P-77" value="后台" style="rounded=1;fillColor=#ffe6cc;strokeColor=#d79b00;shadow=1;fontStyle=1;fontSize=20;" vertex="1" parent="1">
          <mxGeometry x="620" y="-3240" width="200" height="60" as="geometry" />
        </mxCell>
        <mxCell id="APXvnpSU0P8AZsmZ6f8P-93" style="edgeStyle=orthogonalEdgeStyle;rounded=0;orthogonalLoop=1;jettySize=auto;html=1;exitX=1;exitY=0.5;exitDx=0;exitDy=0;entryX=0;entryY=0.5;entryDx=0;entryDy=0;fontSize=20;" edge="1" parent="1" source="APXvnpSU0P8AZsmZ6f8P-78" target="APXvnpSU0P8AZsmZ6f8P-84">
          <mxGeometry relative="1" as="geometry" />
        </mxCell>
        <mxCell id="APXvnpSU0P8AZsmZ6f8P-94" style="edgeStyle=orthogonalEdgeStyle;rounded=0;orthogonalLoop=1;jettySize=auto;html=1;exitX=1;exitY=0.5;exitDx=0;exitDy=0;entryX=0;entryY=0.5;entryDx=0;entryDy=0;fontSize=20;" edge="1" parent="1" source="APXvnpSU0P8AZsmZ6f8P-78" target="APXvnpSU0P8AZsmZ6f8P-85">
          <mxGeometry relative="1" as="geometry" />
        </mxCell>
        <mxCell id="APXvnpSU0P8AZsmZ6f8P-78" value="前台路由" style="rounded=1;fillColor=#ffe6cc;strokeColor=#d79b00;shadow=1;fontStyle=1;fontSize=20;" vertex="1" parent="1">
          <mxGeometry x="890" y="-3790" width="220" height="60" as="geometry" />
        </mxCell>
        <mxCell id="APXvnpSU0P8AZsmZ6f8P-79" value="......" style="rounded=1;fillColor=#ffe6cc;strokeColor=#d79b00;shadow=1;fontStyle=1;fontSize=20;" vertex="1" parent="1">
          <mxGeometry x="890" y="-3660" width="220" height="60" as="geometry" />
        </mxCell>
        <mxCell id="APXvnpSU0P8AZsmZ6f8P-84" value="有" style="rounded=1;fillColor=#ffe6cc;strokeColor=#d79b00;shadow=1;fontStyle=1;fontSize=20;" vertex="1" parent="1">
          <mxGeometry x="1190" y="-3850" width="220" height="60" as="geometry" />
        </mxCell>
        <mxCell id="APXvnpSU0P8AZsmZ6f8P-91" style="edgeStyle=orthogonalEdgeStyle;rounded=0;orthogonalLoop=1;jettySize=auto;html=1;exitX=1;exitY=0.5;exitDx=0;exitDy=0;entryX=0;entryY=0.5;entryDx=0;entryDy=0;fontSize=20;" edge="1" parent="1" source="APXvnpSU0P8AZsmZ6f8P-85" target="APXvnpSU0P8AZsmZ6f8P-86">
          <mxGeometry relative="1" as="geometry" />
        </mxCell>
        <mxCell id="APXvnpSU0P8AZsmZ6f8P-92" style="edgeStyle=orthogonalEdgeStyle;rounded=0;orthogonalLoop=1;jettySize=auto;html=1;exitX=1;exitY=0.5;exitDx=0;exitDy=0;entryX=0;entryY=0.5;entryDx=0;entryDy=0;fontSize=20;" edge="1" parent="1" source="APXvnpSU0P8AZsmZ6f8P-85" target="APXvnpSU0P8AZsmZ6f8P-87">
          <mxGeometry relative="1" as="geometry" />
        </mxCell>
        <mxCell id="APXvnpSU0P8AZsmZ6f8P-85" value="无" style="rounded=1;fillColor=#ffe6cc;strokeColor=#d79b00;shadow=1;fontStyle=1;fontSize=20;" vertex="1" parent="1">
          <mxGeometry x="1190" y="-3740" width="220" height="60" as="geometry" />
        </mxCell>
        <mxCell id="APXvnpSU0P8AZsmZ6f8P-86" value="不显示菜单" style="rounded=1;fillColor=#ffe6cc;strokeColor=#d79b00;shadow=1;fontStyle=1;fontSize=20;" vertex="1" parent="1">
          <mxGeometry x="1470" y="-3790" width="220" height="60" as="geometry" />
        </mxCell>
        <mxCell id="APXvnpSU0P8AZsmZ6f8P-87" value="置灰" style="rounded=1;fillColor=#ffe6cc;strokeColor=#d79b00;shadow=1;fontStyle=1;fontSize=20;" vertex="1" parent="1">
          <mxGeometry x="1470" y="-3700" width="220" height="60" as="geometry" />
        </mxCell>
        <mxCell id="APXvnpSU0P8AZsmZ6f8P-98" style="edgeStyle=orthogonalEdgeStyle;rounded=0;orthogonalLoop=1;jettySize=auto;html=1;exitX=1;exitY=0.5;exitDx=0;exitDy=0;entryX=0;entryY=0.5;entryDx=0;entryDy=0;fontSize=20;" edge="1" parent="1" source="APXvnpSU0P8AZsmZ6f8P-95" target="APXvnpSU0P8AZsmZ6f8P-97">
          <mxGeometry relative="1" as="geometry" />
        </mxCell>
        <mxCell id="APXvnpSU0P8AZsmZ6f8P-95" value="可看" style="rounded=1;fillColor=#ffe6cc;strokeColor=#d79b00;shadow=1;fontStyle=1;fontSize=20;" vertex="1" parent="1">
          <mxGeometry x="880" y="-3240" width="200" height="60" as="geometry" />
        </mxCell>
        <mxCell id="APXvnpSU0P8AZsmZ6f8P-97" value="调用那个接口" style="rounded=1;fillColor=#ffe6cc;strokeColor=#d79b00;shadow=1;fontStyle=1;fontSize=20;" vertex="1" parent="1">
          <mxGeometry x="1210" y="-3240" width="220" height="60" as="geometry" />
        </mxCell>
      </root>
    </mxGraphModel>
  </diagram>
</mxfile>
